<svg xmlns="http://www.w3.org/2000/svg" width="53.348" height="60.254" viewBox="0 0 53.348 60.254">
  <g id="Group_3275" data-name="Group 3275" transform="translate(-1717.652 117.254)">
    <g id="Group_3274" data-name="Group 3274" transform="translate(1717.652 -117.254)">
      <g id="Group_2067" data-name="Group 2067" transform="translate(0 0)">
        <path id="Path_5009" data-name="Path 5009" d="M316.519,281.746h-15.14l-6.159,10.668a4.9,4.9,0,0,0,0,4.887l6.159,10.668h15.14l7.569-13.112Z" transform="translate(-278.29 -263.287)" fill="#ffc316"/>
        <g id="Group_2066" data-name="Group 2066">
          <path id="Path_5010" data-name="Path 5010" d="M226.88,176.3h-4.675l-7.062-12.232a9.23,9.23,0,0,0-1.55-18.326c-7.982,0-13.388,9.789-16.617,15.637-.255.462-.5.9-.728,1.312l-.813,1.448L192.053,170a12.826,12.826,0,0,0-11.5-9.405,3.034,3.034,0,1,0-.024,2.031,10.787,10.787,0,0,1,9.933,10.134l-.635,1.1a6.934,6.934,0,0,0,0,6.914l6.744,11.682h17.481l8.155-14.125h4.675a1.014,1.014,0,0,0,0-2.027Zm-49.2-13.719a1.006,1.006,0,1,1,1.006-1.006A1.007,1.007,0,0,1,177.685,162.586Zm35.909-14.812a7.2,7.2,0,0,1,0,14.405H198.853C201.878,156.7,206.884,147.774,213.594,147.774Zm-22.013,31.988a4.9,4.9,0,0,1,0-4.887l.87-1.507h.055c0-.03,0-.06,0-.091l4.1-7.1,6.431,11.138L196.6,188.456Zm8.561,10.668,7.57-13.112-7.57-13.112h4.331l7.57,13.112-7.57,13.112Zm12.738,0h-3.726l7.57-13.112-7.57-13.112h3.726l7.57,13.112Z" transform="translate(-174.652 -145.747)" fill="#414042"/>
          <path id="Path_5011" data-name="Path 5011" d="M472.454,176.208a3,3,0,0,1,.774.578,1.013,1.013,0,0,0,1.4-1.464,4.97,4.97,0,0,0-1.237-.91,1.013,1.013,0,1,0-.938,1.8Z" transform="translate(-431.563 -170.421)" fill="#414042"/>
          <path id="Path_5012" data-name="Path 5012" d="M408.507,170.8a1.016,1.016,0,0,0-1.122-.892c-2.469.282-4.9,1.941-7.438,5.074a1.013,1.013,0,1,0,1.575,1.276c2.155-2.661,4.205-4.12,6.093-4.335A1.014,1.014,0,0,0,408.507,170.8Z" transform="translate(-369.172 -166.621)" fill="#414042"/>
          <path id="Path_5013" data-name="Path 5013" d="M320.273,337.413a2.3,2.3,0,1,0,2.3,2.3A2.3,2.3,0,0,0,320.273,337.413Z" transform="translate(-298.524 -311.398)" fill="#414042"/>
        </g>
      </g>
    </g>
    <rect id="Rectangle_70" data-name="Rectangle 70" width="53" height="14" transform="translate(1718 -71)" fill="none"/>
  </g>
</svg>
